<svg width="24" height="36.00000000000001" xmlns="http://www.w3.org/2000/svg">

 <g>
  <title>background</title>
  <rect fill="none" id="canvas_background" height="38" width="26" y="-1" x="-1"/>
 </g>
 <g>
  <title>Layer 1</title>
  <path id="svg_9" fill="rgb(60, 60, 67)" d="m6.8281,10.437l-3.23626,-3.14585l6.06398,-5.89487c0.95758,-0.93085 1.43638,-1.39628 2.02648,-1.39628c0.59,0 1.0688,0.46543 2.0264,1.39629l8.7737,8.5291c1.0084,0.98031 1.5126,1.47041 1.5126,2.08461c0,0.6142 -0.5042,1.1043 -1.5126,2.0846l-1.0918,1.0613l-9.7083,-9.43764l-4.8542,4.71874zm-4.85548,-1.57283c-1.01471,0.98638 -1.52207,1.47953 -1.75157,2.03403c-0.29472,0.7119 -0.29473,1.5118 -0.00002,2.2238c0.22949,0.5544 0.73684,1.0476 1.75153,2.034l7.68195,7.4678c0.06914,0.0672 0.13578,0.132 0.20016,0.1943l0,0.7648c0,1.4494 1.03573,2.2118 2.08833,2.9867c1.2174,0.8961 2.4575,1.8089 2.1444,3.8205c-0.2189,1.4587 -2.9191,1.8755 -4.0868,0.5557c-0.41057,-0.4885 -0.56449,-1.0381 -0.71746,-1.5844c-0.1733,-0.6188 -0.34538,-1.2333 -0.88804,-1.7498c-1.0217,-0.9724 -3.13807,-1.0419 -3.06509,-0.6251c0,0.1907 0.10698,0.2651 0.28597,0.3895c0.21215,0.1474 0.52545,0.3651 0.88169,0.9303c0.18443,0.2758 0.16911,0.778 0.14978,1.4117c-0.03422,1.1217 -0.081,2.6554 0.94489,4.0757c2.11638,3.1258 7.88166,2.709 9.70616,0.1389c1.5325,-2.1533 1.8244,-4.7928 0.0729,-7.3629c-0.7629,-1.1223 -1.7896,-1.7583 -2.657,-2.2957c-0.6401,-0.3965 -1.1934,-0.7393 -1.4902,-1.1841c0.1473,-0.1397 0.3072,-0.295 0.4832,-0.4661l6.0639,-5.8949l-3.2362,-3.1459l-4.8542,4.7188l-9.70827,-9.43764l-0.00001,0.00001z" clip-rule="evenodd" fill-rule="evenodd"/>
 </g>
</svg>